<?xml version="1.0" encoding="iso-8859-1"?>
<!-- Generator: Adobe Illustrator 17.1.0, SVG Export Plug-In . SVG Version: 6.00 Build 0)  -->
<!DOCTYPE svg PUBLIC "-//W3C//DTD SVG 1.1//EN" "http://www.w3.org/Graphics/SVG/1.1/DTD/svg11.dtd">
<svg xmlns="http://www.w3.org/2000/svg" xmlns:xlink="http://www.w3.org/1999/xlink" version="1.1" id="Capa_1" x="0px" y="0px" viewBox="0 0 511 511" style="enable-background:new 0 0 511 511;" xml:space="preserve" width="512px" height="512px">
<g>
	<path d="M450.632,251.294L301.671,31.399C288.352,11.738,266.223,0,242.475,0H82.587c-8.72,0-16.675,4.785-20.761,12.488   S58.24,29.461,63.13,36.68l148.301,218.921L70.039,474.76v0c-4.738,7.344-5.07,16.31-0.889,23.984S81.046,511,89.786,511h159.763   c24.396,0,46.855-12.238,60.081-32.738l141.094-218.696C452.354,257.039,452.318,253.783,450.632,251.294z M297.026,470.13   C286.575,486.329,268.826,496,249.549,496H89.786c-3.161,0-5.952-1.657-7.464-4.433c-1.513-2.776-1.393-6.019,0.321-8.675   l144.081-223.326c1.63-2.527,1.594-5.783-0.093-8.272L75.549,28.267c-1.796-2.651-1.972-5.922-0.472-8.75   c1.5-2.828,4.308-4.517,7.509-4.517h159.888c18.766,0,36.253,9.275,46.777,24.812l146.179,215.789L297.026,470.13z" fill="#FFFFFF"/>
	<path d="M208.473,338.969c-3.479-2.245-8.122-1.245-10.368,2.236l-14.326,22.205c-2.246,3.48-1.245,8.123,2.236,10.368   c1.257,0.811,2.666,1.199,4.059,1.199c2.462,0,4.875-1.212,6.309-3.435l14.326-22.204   C212.955,345.857,211.954,341.215,208.473,338.969z" fill="#FFFFFF"/>
	<path d="M178.663,385.175c-3.479-2.245-8.123-1.244-10.368,2.236l-42.175,65.371c-2.246,3.48-1.244,8.123,2.236,10.368   c1.257,0.811,2.666,1.199,4.059,1.199c2.462,0,4.875-1.212,6.309-3.435l42.175-65.371   C183.145,392.062,182.143,387.42,178.663,385.175z" fill="#FFFFFF"/>
	<path d="M140.672,31.998h-26.198c-4.142,0-7.5,3.358-7.5,7.5s3.358,7.5,7.5,7.5h26.198c4.142,0,7.5-3.358,7.5-7.5   S144.814,31.998,140.672,31.998z" fill="#FFFFFF"/>
	<path d="M244.421,31.998h-72.093c-4.142,0-7.5,3.358-7.5,7.5s3.358,7.5,7.5,7.5h72.093c4.142,0,7.5-3.358,7.5-7.5   S248.563,31.998,244.421,31.998z" fill="#FFFFFF"/>
</g>
<g>
</g>
<g>
</g>
<g>
</g>
<g>
</g>
<g>
</g>
<g>
</g>
<g>
</g>
<g>
</g>
<g>
</g>
<g>
</g>
<g>
</g>
<g>
</g>
<g>
</g>
<g>
</g>
<g>
</g>
</svg>
