<?xml version="1.0" encoding="iso-8859-1"?>
<!-- Generator: Adobe Illustrator 19.1.0, SVG Export Plug-In . SVG Version: 6.00 Build 0)  -->
<svg xmlns="http://www.w3.org/2000/svg" xmlns:xlink="http://www.w3.org/1999/xlink" version="1.1" id="Capa_1" x="0px" y="0px" viewBox="0 0 297.331 297.331" style="enable-background:new 0 0 297.331 297.331;" xml:space="preserve" width="512px" height="512px">
<g>
	<path d="M211.109,139.359c-6.748-4.383-14.962-8.149-24.441-11.189c-9.036-2.879-19.191-5.534-30.084-7.873   c-8.419-1.947-14.576-3.451-18.246-4.473c-3.213-0.893-6.44-2.14-9.595-3.715c-2.577-1.298-4.563-2.776-5.881-4.37   c-0.848-1.048-1.208-2.159-1.208-3.734c0-1.825,0.617-4.319,5.399-7.455c4.717-3.098,11.331-4.672,19.64-4.672   c11.658,0,16.575,2.41,18.458,3.843c3.882,2.95,7.314,7.23,10.328,12.982c3.284,5.643,6.24,9.525,9.28,12.198   c3.895,3.458,9.21,5.212,15.784,5.212c7.159,0,13.516-2.661,18.368-7.706c4.769-4.955,7.288-10.964,7.288-17.372   c0-6.041-1.665-12.198-4.949-18.304c-3.175-5.9-8.13-11.504-14.724-16.658c-6.478-5.045-14.595-9.107-24.139-12.076   c-9.415-2.924-20.553-4.409-33.117-4.409c-15.714,0-29.679,2.224-41.492,6.6c-12.404,4.582-22.102,11.356-28.85,20.142   c-6.902,9.004-10.405,19.428-10.405,30.984c0,12.095,3.381,22.462,10.064,30.83c6.324,7.905,14.904,14.21,25.495,18.715   c9.756,4.152,21.941,7.802,36.26,10.861c9.955,2.082,18.014,4.081,23.953,5.932c4.891,1.517,8.856,3.676,11.787,6.414   c2.179,2.037,3.143,4.512,3.143,8.014c0,3.046-0.81,7.089-7.108,11.382c-5.72,3.901-13.561,5.887-23.323,5.887   c-7.095,0-12.712-0.951-16.684-2.834c-3.85-1.819-6.825-4.087-8.83-6.722c-2.423-3.207-4.756-7.359-6.909-12.275   c-2.519-5.919-5.739-10.579-9.608-13.876c-4.422-3.721-9.775-5.604-15.932-5.604c-7.159,0-13.509,2.391-18.361,6.935   c-4.968,4.685-7.603,10.669-7.603,17.314c0,9.178,3.265,18.548,9.711,27.841c6.228,8.965,14.39,16.202,24.293,21.549   c13.516,7.179,30.643,10.823,50.913,10.823c16.87,0,31.768-2.641,44.281-7.847c12.969-5.386,23.053-13.072,29.968-22.854   c6.986-9.904,10.534-21.202,10.534-33.574c0-10.334-2.108-19.325-6.266-26.704C224.187,150.234,218.403,144.128,211.109,139.359z    M213.525,210.389c-5.489,7.77-13.702,13.959-24.409,18.4c-10.932,4.55-24.171,6.857-39.339,6.857   c-18.149,0-33.246-3.13-44.846-9.293c-8.079-4.364-14.743-10.27-19.801-17.539c-4.923-7.102-7.417-14.01-7.417-20.514   c0-3.143,1.131-5.675,3.541-7.944c2.487-2.32,5.617-3.451,9.57-3.451c3.085,0,5.591,0.842,7.629,2.558   c2.307,1.967,4.364,5.026,6.112,9.158c2.584,5.906,5.437,10.926,8.471,14.949c3.278,4.312,7.847,7.873,13.573,10.579   c5.707,2.706,13.169,4.075,22.179,4.075c12.397,0,22.68-2.738,30.572-8.13c8.438-5.752,12.719-13.156,12.719-21.999   c0-7.057-2.423-12.905-7.217-17.404c-4.37-4.081-10.007-7.204-16.742-9.3c-6.324-1.973-14.782-4.068-25.11-6.228   c-13.49-2.892-24.891-6.292-33.882-10.116c-8.612-3.67-15.502-8.696-20.489-14.917c-4.807-6.028-7.249-13.696-7.249-22.802   c0-8.663,2.609-16.453,7.751-23.162c5.238-6.832,13.014-12.185,23.117-15.913c10.379-3.85,22.847-5.797,37.031-5.797   c11.273,0,21.131,1.285,29.306,3.83c8.053,2.5,14.801,5.848,20.045,9.936c5.186,4.042,8.985,8.291,11.311,12.609   c2.269,4.21,3.413,8.323,3.413,12.211c0,3.104-1.208,5.874-3.689,8.458c-2.449,2.539-5.431,3.766-9.113,3.766   c-2.294,0-5.418-0.341-7.275-1.999c-1.941-1.703-4.19-4.737-6.549-8.779c-3.766-7.179-8.406-12.892-13.792-16.993   c-5.726-4.351-14.306-6.465-26.241-6.465c-10.855,0-19.84,2.282-26.691,6.78c-7.429,4.872-11.196,10.996-11.196,18.201   c0,4.524,1.382,8.509,4.126,11.877c2.487,3.021,5.868,5.611,10.064,7.719c3.901,1.954,7.911,3.503,11.915,4.608   c3.747,1.048,10.064,2.596,18.882,4.64c10.585,2.275,20.335,4.82,28.966,7.571c8.381,2.693,15.566,5.964,21.344,9.724   c5.54,3.618,9.917,8.22,12.995,13.696c3.059,5.437,4.608,12.301,4.608,20.405C221.7,193.904,218.943,202.702,213.525,210.389z    M287.582,178.062c1.851-9.178,2.796-18.554,2.796-27.905c0-77.308-62.899-140.201-140.214-140.201   c-7.262,0-14.512,0.553-21.575,1.658C115.696,4.01,101.03,0,86.004,0C39.673,0,1.986,37.687,1.986,84.012   c0,14.107,3.567,28.002,10.328,40.348c-1.581,8.554-2.378,17.224-2.378,25.797c0,77.315,62.906,140.221,140.227,140.221   c7.899,0,15.778-0.662,23.464-1.967c11.639,5.842,24.615,8.92,37.7,8.92c46.331,0,84.018-37.681,84.018-83.999   C295.345,200.999,292.736,189.148,287.582,178.062z M211.327,284.484c-11.729,0-23.362-2.918-33.632-8.438l-1.999-1.073   l-2.23,0.411c-7.603,1.42-15.444,2.14-23.31,2.14c-70.239,0-127.373-57.141-127.373-127.367c0-8.516,0.874-17.14,2.584-25.63   l0.482-2.41l-1.24-2.121c-6.395-10.887-9.775-23.336-9.775-35.984c0-39.236,31.929-71.158,71.164-71.158   c13.426,0,26.517,3.779,37.854,10.926l2.089,1.317l2.442-0.424c7.095-1.234,14.422-1.864,21.781-1.864   c70.232,0,127.361,57.128,127.361,127.348c0,9.178-0.996,18.374-2.956,27.346l-0.482,2.211l1.003,2.024   c4.917,9.872,7.404,20.502,7.404,31.594C282.491,252.568,250.563,284.484,211.327,284.484z" fill="#21c0cc"/>
</g>
<g>
</g>
<g>
</g>
<g>
</g>
<g>
</g>
<g>
</g>
<g>
</g>
<g>
</g>
<g>
</g>
<g>
</g>
<g>
</g>
<g>
</g>
<g>
</g>
<g>
</g>
<g>
</g>
<g>
</g>
</svg>
